{
	"asset": {
		"generator": "Tilt Brush 19.0.4adc9bb30",
		"version": "1.1",
		"copyright": "Unknown."
	},
	"buffers": {
		"sketch": {
			"byteLength": 445824,
			"type": "arraybuffer",
			"uri": "sketch.bin"
		}
	},
	"accessors": {
		"accessor_position_DiamondHull_c8313697-2563-47fc-832e-290f4c04b901_0_0": {
			"bufferView": "vec3BufferView",
			"byteOffset": 0,
			"byteStride": 12,
			"componentType": 5126,
			"count": 7404,
			"max": [ -0.5509045, 1.305901, 0.4307439 ],
			"min": [ -1.177719, 0.3234696, -0.03287489 ],
			"type": "VEC3"
		 },
		"accessor_normal_DiamondHull_c8313697-2563-47fc-832e-290f4c04b901_0_0": {
			"bufferView": "vec3BufferView",
			"byteOffset": 88848,
			"byteStride": 12,
			"componentType": 5126,
			"count": 7404,
			"max": [ 0.999386, 0.9996452, 0.9997892 ],
			"min": [ -0.9997736, -0.9924862, -0.9993251 ],
			"type": "VEC3"
		 },
		"accessor_color_DiamondHull_c8313697-2563-47fc-832e-290f4c04b901_0_0": {
			"bufferView": "vec4BufferView",
			"byteOffset": 0,
			"byteStride": 16,
			"componentType": 5126,
			"count": 7404,
			"max": [ 0.3176471, 0.8, 0.9019608, 1 ],
			"min": [ 0.3176471, 0.8, 0.9019608, 1 ],
			"type": "VEC4"
		 },
		"accessor_uv0_DiamondHull_c8313697-2563-47fc-832e-290f4c04b901_0_0": {
			"bufferView": "vec3BufferView",
			"byteOffset": 177696,
			"byteStride": 12,
			"componentType": 5126,
			"count": 7404,
			"max": [ 0, 1, 0.09462108 ],
			"min": [ 0, 1, 0.003927009 ],
			"type": "VEC3"
		 },
		"accessor_indices_0_DiamondHull_c8313697-2563-47fc-832e-290f4c04b901_0_0": {
			"bufferView": "ushortBufferView",
			"byteOffset": 0,
			"byteStride": 0,
			"componentType": 5123,
			"count": 7404,
			"max": [ 7403 ],
			"min": [ 0 ],
			"type": "SCALAR"
		 },
		"accessor_position_MatteHull_79348357-432d-4746-8e29-0e25c112e3aa_0_0": {
			"bufferView": "vec3BufferView",
			"byteOffset": 266544,
			"byteStride": 12,
			"componentType": 5126,
			"count": 852,
			"max": [ -0.7283915, 0.5281536, 0.451269 ],
			"min": [ -1.237081, 0.215444, -0.06233864 ],
			"type": "VEC3"
		 },
		"accessor_normal_MatteHull_79348357-432d-4746-8e29-0e25c112e3aa_0_0": {
			"bufferView": "vec3BufferView",
			"byteOffset": 276768,
			"byteStride": 12,
			"componentType": 5126,
			"count": 852,
			"max": [ 0.990389, 0.9938048, 0.997595 ],
			"min": [ -0.9917235, -0.9952673, -0.9967153 ],
			"type": "VEC3"
		 },
		"accessor_color_MatteHull_79348357-432d-4746-8e29-0e25c112e3aa_0_0": {
			"bufferView": "vec4BufferView",
			"byteOffset": 118464,
			"byteStride": 16,
			"componentType": 5126,
			"count": 852,
			"max": [ 0.2705882, 0.2705882, 0.2705882, 1 ],
			"min": [ 0.2705882, 0.2705882, 0.2705882, 1 ],
			"type": "VEC4"
		 },
		"accessor_uv0_MatteHull_79348357-432d-4746-8e29-0e25c112e3aa_0_0": {
			"bufferView": "vec3BufferView",
			"byteOffset": 286992,
			"byteStride": 12,
			"componentType": 5126,
			"count": 852,
			"max": [ 0, 1, 0.07221068 ],
			"min": [ 0, 1, 0.07221068 ],
			"type": "VEC3"
		 },
		"accessor_indices_0_MatteHull_79348357-432d-4746-8e29-0e25c112e3aa_0_0": {
			"bufferView": "ushortBufferView",
			"byteOffset": 14808,
			"byteStride": 0,
			"componentType": 5123,
			"count": 852,
			"max": [ 851 ],
			"min": [ 0 ],
			"type": "SCALAR"
		 }
	},
	"bufferViews": {
		"ushortBufferView": {
			"buffer": "sketch",
			"byteLength": 16512,
			"byteOffset": 0,
			"target": 34963
		},
		"vec3BufferView": {
			"buffer": "sketch",
			"byteLength": 297216,
			"byteOffset": 16512,
			"target": 34962
		},
		"vec4BufferView": {
			"buffer": "sketch",
			"byteLength": 132096,
			"byteOffset": 313728,
			"target": 34962
		}
	},
	"meshes": {
		"mesh_DiamondHull_c8313697-2563-47fc-832e-290f4c04b901_0_0": {
			"name": "mesh_DiamondHull_c8313697-2563-47fc-832e-290f4c04b901_0_0",
			"primitives": [
				{
					"attributes": {
						"POSITION": "accessor_position_DiamondHull_c8313697-2563-47fc-832e-290f4c04b901_0_0",
						"NORMAL": "accessor_normal_DiamondHull_c8313697-2563-47fc-832e-290f4c04b901_0_0",
						"COLOR": "accessor_color_DiamondHull_c8313697-2563-47fc-832e-290f4c04b901_0_0",
						"TEXCOORD_0": "accessor_uv0_DiamondHull_c8313697-2563-47fc-832e-290f4c04b901_0_0"
					},
					"indices": "accessor_indices_0_DiamondHull_c8313697-2563-47fc-832e-290f4c04b901_0_0",
					"material": "material_c8313697-2563-47fc-832e-290f4c04b901",
					"mode": 4
				}
			]
		},
		"mesh_MatteHull_79348357-432d-4746-8e29-0e25c112e3aa_0_0": {
			"name": "mesh_MatteHull_79348357-432d-4746-8e29-0e25c112e3aa_0_0",
			"primitives": [
				{
					"attributes": {
						"POSITION": "accessor_position_MatteHull_79348357-432d-4746-8e29-0e25c112e3aa_0_0",
						"NORMAL": "accessor_normal_MatteHull_79348357-432d-4746-8e29-0e25c112e3aa_0_0",
						"COLOR": "accessor_color_MatteHull_79348357-432d-4746-8e29-0e25c112e3aa_0_0",
						"TEXCOORD_0": "accessor_uv0_MatteHull_79348357-432d-4746-8e29-0e25c112e3aa_0_0"
					},
					"indices": "accessor_indices_0_MatteHull_79348357-432d-4746-8e29-0e25c112e3aa_0_0",
					"material": "material_79348357-432d-4746-8e29-0e25c112e3aa",
					"mode": 4
				}
			]
		}
	},
	"shaders": {
		"vertex_c8313697-2563-47fc-832e-290f4c04b901": {
			"type": 35633,
			"uri": "https://www.tiltbrush.com/shaders/brushes/DiamondHull-c8313697-2563-47fc-832e-290f4c04b901/DiamondHull-c8313697-2563-47fc-832e-290f4c04b901-v10.0-vertex.glsl"
		},
		"fragment_c8313697-2563-47fc-832e-290f4c04b901": {
			"type": 35632,
			"uri": "https://www.tiltbrush.com/shaders/brushes/DiamondHull-c8313697-2563-47fc-832e-290f4c04b901/DiamondHull-c8313697-2563-47fc-832e-290f4c04b901-v10.0-fragment.glsl"
		},
		"vertex_79348357-432d-4746-8e29-0e25c112e3aa": {
			"type": 35633,
			"uri": "https://www.tiltbrush.com/shaders/brushes/MatteHull-79348357-432d-4746-8e29-0e25c112e3aa/MatteHull-79348357-432d-4746-8e29-0e25c112e3aa-v10.0-vertex.glsl"
		},
		"fragment_79348357-432d-4746-8e29-0e25c112e3aa": {
			"type": 35632,
			"uri": "https://www.tiltbrush.com/shaders/brushes/MatteHull-79348357-432d-4746-8e29-0e25c112e3aa/MatteHull-79348357-432d-4746-8e29-0e25c112e3aa-v10.0-fragment.glsl"
		}
	},
	"programs": {
		"program_c8313697-2563-47fc-832e-290f4c04b901": {
			"attributes": [
				"a_position",
				"a_normal",
				"a_color",
				"a_texcoord0"				
			],
			"vertexShader": "vertex_c8313697-2563-47fc-832e-290f4c04b901",
			"fragmentShader": "fragment_c8313697-2563-47fc-832e-290f4c04b901"
		},
		"program_79348357-432d-4746-8e29-0e25c112e3aa": {
			"attributes": [
				"a_position",
				"a_normal",
				"a_color",
				"a_texcoord0"				
			],
			"vertexShader": "vertex_79348357-432d-4746-8e29-0e25c112e3aa",
			"fragmentShader": "fragment_79348357-432d-4746-8e29-0e25c112e3aa"
		}
	},
	"techniques": {
		"technique_c8313697-2563-47fc-832e-290f4c04b901": {
			"program": "program_c8313697-2563-47fc-832e-290f4c04b901",
			"parameters": {
				"position": {
					"type": 35665,
					"semantic": "POSITION"
				},
				"normal": {
					"type": 35665,
					"semantic": "NORMAL"
				},
				"color": {
					"type": 35666,
					"semantic": "COLOR"
				},
				"texcoord0": {
					"type": 35665,
					"semantic": "TEXCOORD_0"
				},
				"modelViewMatrix": {
					"type": 35676,
					"semantic": "MODELVIEW"
				},
				"projectionMatrix": {
					"type": 35676,
					"semantic": "PROJECTION"
				},
				"normalMatrix": {
					"type": 35675,
					"semantic": "MODELVIEWINVERSETRANSPOSE"
				},
				"SceneLight_0_matrix": {
					"type": 35676,
					"semantic": "MODELVIEW",
					"node": "node_SceneLight_0_-2986"
				},
				"SceneLight_0_color": {
					"type": 35666,
					"node": "node_SceneLight_0_-2986"
				},
				"SceneLight_1_matrix": {
					"type": 35676,
					"semantic": "MODELVIEW",
					"node": "node_SceneLight_1_-2992"
				},
				"SceneLight_1_color": {
					"type": 35666,
					"node": "node_SceneLight_1_-2992"
				},
				"ambient_light_color": {
					"type": 35666
				},
				"MainTex_TexelSize": {
					"type": 35666
				},
				"MainTex": {
					"type": 35678
				}				
			},
			"attributes": {
				"a_position": "position",
				"a_normal": "normal",
				"a_color": "color",
				"a_texcoord0": "texcoord0"				
			},
			"uniforms": {
				"u_modelViewMatrix": "modelViewMatrix",
				"u_projectionMatrix": "projectionMatrix",
				"u_normalMatrix": "normalMatrix",
				"u_SceneLight_0_matrix": "SceneLight_0_matrix",
				"u_SceneLight_0_color": "SceneLight_0_color",
				"u_SceneLight_1_matrix": "SceneLight_1_matrix",
				"u_SceneLight_1_color": "SceneLight_1_color",
				"u_ambient_light_color": "ambient_light_color",
				"u_MainTex_TexelSize": "MainTex_TexelSize",
				"u_MainTex": "MainTex"				
			},
			"states": {
				"enable": [
					2929,
					3042
				],
				"functions": {
					"blendFuncSeparate": [1, 1, 1, 1],
					"depthMask": [false]
				}
			}
		},
		"technique_79348357-432d-4746-8e29-0e25c112e3aa": {
			"program": "program_79348357-432d-4746-8e29-0e25c112e3aa",
			"parameters": {
				"position": {
					"type": 35665,
					"semantic": "POSITION"
				},
				"normal": {
					"type": 35665,
					"semantic": "NORMAL"
				},
				"color": {
					"type": 35666,
					"semantic": "COLOR"
				},
				"texcoord0": {
					"type": 35665,
					"semantic": "TEXCOORD_0"
				},
				"modelViewMatrix": {
					"type": 35676,
					"semantic": "MODELVIEW"
				},
				"projectionMatrix": {
					"type": 35676,
					"semantic": "PROJECTION"
				},
				"normalMatrix": {
					"type": 35675,
					"semantic": "MODELVIEWINVERSETRANSPOSE"
				},
				"SceneLight_0_matrix": {
					"type": 35676,
					"semantic": "MODELVIEW",
					"node": "node_SceneLight_0_-2986"
				},
				"SceneLight_0_color": {
					"type": 35666,
					"node": "node_SceneLight_0_-2986"
				},
				"SceneLight_1_matrix": {
					"type": 35676,
					"semantic": "MODELVIEW",
					"node": "node_SceneLight_1_-2992"
				},
				"SceneLight_1_color": {
					"type": 35666,
					"node": "node_SceneLight_1_-2992"
				},
				"ambient_light_color": {
					"type": 35666
				},
				"Cutoff": {
					"type": 5126
				},
				"Color": {
					"type": 35666
				}				
			},
			"attributes": {
				"a_position": "position",
				"a_normal": "normal",
				"a_color": "color",
				"a_texcoord0": "texcoord0"				
			},
			"uniforms": {
				"u_modelViewMatrix": "modelViewMatrix",
				"u_projectionMatrix": "projectionMatrix",
				"u_normalMatrix": "normalMatrix",
				"u_SceneLight_0_matrix": "SceneLight_0_matrix",
				"u_SceneLight_0_color": "SceneLight_0_color",
				"u_SceneLight_1_matrix": "SceneLight_1_matrix",
				"u_SceneLight_1_color": "SceneLight_1_color",
				"u_ambient_light_color": "ambient_light_color",
				"u_Cutoff": "Cutoff",
				"u_Color": "Color"				
			},
			"states": {
				"enable": [
					2929
				],
				"functions": {
					"depthMask": [true]
				}
			}
		}
	},
	"samplers": {
		"sampler_LINEAR_LINEAR_REPEAT": {
			"magFilter": 9729,
			"minFilter": 9987,
			"wrapS": 10497,
			"wrapT": 10497
		}
	},
	"textures": {
		"texture_c8313697-2563-47fc-832e-290f4c04b901_MainTex": {
			"format": 6408,
			"internalFormat": 6408,
			"sampler": "sampler_LINEAR_LINEAR_REPEAT",
			"source": "image_c8313697-2563-47fc-832e-290f4c04b901_MainTex",
			"target": 3553,
			"type": 5121
		}
	},
	"images": {
		"image_c8313697-2563-47fc-832e-290f4c04b901_MainTex": {
			"uri": "https://www.tiltbrush.com/shaders/brushes/DiamondHull-c8313697-2563-47fc-832e-290f4c04b901/DiamondHull-c8313697-2563-47fc-832e-290f4c04b901-v10.0-MainTex.png"
		}
	},
	"materials": {
		"material_c8313697-2563-47fc-832e-290f4c04b901": {
			"technique": "technique_c8313697-2563-47fc-832e-290f4c04b901",
			"values": {
				"SceneLight_0_color": [0, 0, 0, 1],
				"SceneLight_1_color": [0, 0, 0, 1],
				"ambient_light_color": [1, 1, 1, 1],
				"MainTex_TexelSize": [0.0078125, 0.0078125, 128, 128],
				"MainTex": "texture_c8313697-2563-47fc-832e-290f4c04b901_MainTex"				
			},
			"name": "material_c8313697-2563-47fc-832e-290f4c04b901"
		},
		"material_79348357-432d-4746-8e29-0e25c112e3aa": {
			"technique": "technique_79348357-432d-4746-8e29-0e25c112e3aa",
			"values": {
				"SceneLight_0_color": [0, 0, 0, 1],
				"SceneLight_1_color": [0, 0, 0, 1],
				"ambient_light_color": [1, 1, 1, 1],
				"Cutoff": 0.5,
				"Color": [1, 1, 1, 1]				
			},
			"name": "material_79348357-432d-4746-8e29-0e25c112e3aa"
		}
	},
	"nodes": {
		"node_DiamondHull_c8313697-2563-47fc-832e-290f4c04b901_0_0": {
			"name": "node_DiamondHull_c8313697-2563-47fc-832e-290f4c04b901_0_0",
			"meshes": [
				"mesh_DiamondHull_c8313697-2563-47fc-832e-290f4c04b901_0_0"
			],
			"matrix": [1, 0, 0, 0, 0, 1, 0, 0, 0, 0, 1, 0, 0, 0, 0, 1]
		},
		"node_SceneLight_0_-2986": {
			"name": "node_SceneLight_0_-2986",
			"light": "SceneLight_0",
			"matrix": [1, 0, 0, 0, 0, -1, 0, 0, 0, 0, -1, 0, -0.007069713, 1.349305, -0.01233141, 1]
		},
		"node_SceneLight_1_-2992": {
			"name": "node_SceneLight_1_-2992",
			"light": "SceneLight_1",
			"matrix": [1, 0, 0, 0, 0, 1, 0, 0, 0, 0, 1, 0, 0.02911386, 1.316805, 0.009546685, 1]
		},
		"node_MatteHull_79348357-432d-4746-8e29-0e25c112e3aa_0_0": {
			"name": "node_MatteHull_79348357-432d-4746-8e29-0e25c112e3aa_0_0",
			"meshes": [
				"mesh_MatteHull_79348357-432d-4746-8e29-0e25c112e3aa_0_0"
			],
			"matrix": [1, 0, 0, 0, 0, 1, 0, 0, 0, 0, 1, 0, 0, 0, 0, 1]
		}
	},
	"scene": "defaultScene",
	"scenes": {
		"defaultScene": {
			"nodes": [
				"node_DiamondHull_c8313697-2563-47fc-832e-290f4c04b901_0_0",
				"node_SceneLight_0_-2986",
				"node_SceneLight_1_-2992",
				"node_MatteHull_79348357-432d-4746-8e29-0e25c112e3aa_0_0"
			],
			"extras": {
				"TB_EnvironmentGuid": "e65cde1a-a177-4bfb-b93f-f673c99a32bc",
				"TB_Environment": "Illustrative",
				"TB_UseGradient": "true",
				"TB_SkyColorA": "0.7647059, 0.7647059, 0.7647059",
				"TB_SkyColorB": "0.6235294, 0.6235294, 0.6235294",
				"TB_SkyGradientDirection": "0, 1, 0",
				"TB_FogColor": "1, 1, 1",
				"TB_FogDensity": "0.0125",
				"TB_SkyColorHorizon": "0.7647059, 0.7647059, 0.7647059",
				"TB_SkyColorZenith": "0.6235294, 0.6235294, 0.6235294"
			}
		}
	}
}